<svg xmlns="http://www.w3.org/2000/svg" viewBox="0 0 1200 760" role="img" aria-labelledby="title desc">
  <title id="title">Street Quality Atlas preview</title>
  <desc id="desc">Street-level road and sidewalk catalog preview with bounding boxes.</desc>
  <rect width="1200" height="760" fill="#101820"/>
  <rect y="420" width="1200" height="340" fill="#2f3437"/>
  <path d="M0 510 C220 470 330 470 520 520 C720 575 920 550 1200 500 L1200 760 L0 760 Z" fill="#454b4f"/>
  <path d="M0 440 L1200 390" stroke="#d7d2c4" stroke-width="28" opacity=".9"/>
  <path d="M0 472 L1200 422" stroke="#686e72" stroke-width="18"/>
  <path d="M590 430 L618 760" stroke="#f6c343" stroke-width="12" stroke-dasharray="42 36"/>
  <rect x="70" y="96" width="330" height="240" fill="#263238"/>
  <rect x="112" y="146" width="70" height="72" fill="#95b8d1"/>
  <rect x="232" y="142" width="86" height="76" fill="#95b8d1"/>
  <path d="M50 96 L236 20 L424 96 Z" fill="#8f5038"/>
  <rect x="165" y="238" width="76" height="98" fill="#665245"/>
  <rect x="812" y="124" width="150" height="210" fill="#1f2d34"/>
  <rect x="840" y="160" width="88" height="70" fill="#a0c4d8"/>
  <path d="M804 124 L888 68 L978 124 Z" fill="#614f3f"/>
  <rect x="978" y="216" width="128" height="24" fill="#d7e3e5"/>
  <rect x="1032" y="240" width="18" height="168" fill="#d7e3e5"/>
  <rect x="1020" y="158" width="96" height="48" rx="4" fill="#2e7d51"/>
  <text x="1034" y="190" fill="#fff" font-family="Inter, Arial, sans-serif" font-size="24" font-weight="700">MAIN</text>
  <rect x="116" y="392" width="36" height="110" rx="15" fill="#f1c232"/>
  <rect x="104" y="374" width="60" height="42" rx="10" fill="#d63031"/>
  <rect x="87" y="356" width="94" height="54" fill="none" stroke="#00d1ff" stroke-width="6"/>
  <text x="86" y="344" fill="#00d1ff" font-family="Inter, Arial, sans-serif" font-size="24" font-weight="800">hydrant</text>
  <rect x="945" y="135" width="190" height="124" fill="none" stroke="#64ff8f" stroke-width="6"/>
  <text x="945" y="122" fill="#64ff8f" font-family="Inter, Arial, sans-serif" font-size="24" font-weight="800">street sign</text>
  <rect x="500" y="606" width="270" height="92" fill="none" stroke="#ff6b6b" stroke-width="6"/>
  <text x="500" y="592" fill="#ff6b6b" font-family="Inter, Arial, sans-serif" font-size="24" font-weight="800">pavement issue</text>
  <text x="64" y="690" fill="#fff" font-family="Inter, Arial, sans-serif" font-size="58" font-weight="900">Street Quality Atlas</text>
</svg>
